<svg width="66" height="66" viewBox="0 0 66 66" fill="none" xmlns="http://www.w3.org/2000/svg">
<path d="M33 8.25C46.6125 8.25 57.75 19.3875 57.75 33C57.75 46.6125 46.6125 57.75 33 57.75C19.3875 57.75 8.25 46.6125 8.25 33C8.25 19.3875 19.3875 8.25 33 8.25ZM33 4.125C17.1188 4.125 4.125 17.1188 4.125 33C4.125 48.8812 17.1188 61.875 33 61.875C48.8812 61.875 61.875 48.8812 61.875 33C61.875 17.1188 48.8812 4.125 33 4.125Z" fill="#BEBEBE"/>
<path d="M49.5 30.9375H35.0625V16.5H30.9375V30.9375H16.5V35.0625H30.9375V49.5H35.0625V35.0625H49.5V30.9375Z" fill="#BEBEBE"/>
</svg>
