<svg width="40" height="40" viewBox="0 0 40 40" fill="none" xmlns="http://www.w3.org/2000/svg">
<path d="M35.016 30.6646C37.4003 28.5396 38.7504 25.7072 38.7504 22.7679C38.7504 19.6441 37.288 16.7227 34.6327 14.5413C32.0483 12.419 28.6275 11.25 25 11.25C21.3725 11.25 17.9517 12.419 15.3677 14.5415C12.7123 16.7227 11.25 19.6441 11.25 22.7679C11.25 25.8916 12.7123 28.813 15.3677 30.9945C17.9517 33.117 21.3725 34.2859 25 34.2859C25.4834 34.2859 25.9697 34.2645 26.452 34.2221L27.2759 34.9362C30.1143 37.3959 33.7442 38.7499 37.5 38.75H38.75V36.0893L38.3839 35.7233C36.9397 34.2748 35.7952 32.5558 35.016 30.6646ZM28.9132 33.0469L27.26 31.614L26.7087 31.6816C26.1418 31.7509 25.5712 31.7857 25 31.7857C18.7969 31.7857 13.75 27.7403 13.75 22.7679C13.75 17.7955 18.7969 13.75 25 13.75C31.2031 13.75 36.25 17.7954 36.25 22.7679C36.25 25.2452 35.0141 27.558 32.7698 29.2802L32.0499 29.8327L32.3821 30.7729C33.0629 32.6932 34.0635 34.4845 35.3416 36.0711C32.9614 35.6738 30.7369 34.6273 28.9132 33.0469Z" fill="black"/>
<path d="M4.70195 24.8028C5.87205 23.3217 6.79075 21.6583 7.42133 19.8791L7.75102 18.9436L7.03172 18.3916C4.91547 16.7677 3.75 14.5881 3.75 12.2545C3.75 7.56508 8.51633 3.75 14.375 3.75C18.685 3.75 22.4037 5.81484 24.0685 8.77344C24.3777 8.75844 24.6881 8.75 25 8.75C25.6264 8.75 26.2471 8.78039 26.862 8.84117C26.2187 7.17438 25.1013 5.65281 23.5652 4.39109C21.0994 2.36555 17.8359 1.25 14.375 1.25C10.9141 1.25 7.65062 2.36555 5.18469 4.39109C2.64734 6.47539 1.25 9.26797 1.25 12.2545C1.25 15.0513 2.5275 17.7463 4.78516 19.7734C4.04839 21.5465 2.97184 23.1582 1.61617 24.5179L1.25 24.884V27.5H2.5C4.81149 27.4997 7.09119 26.9614 9.15867 25.9277C8.93196 25.0685 8.79913 24.1871 8.7625 23.2992C7.50764 24.0347 6.13317 24.5436 4.70195 24.8028Z" fill="black"/>
</svg>
