<svg width="16" height="16" viewBox="0 0 16 16" fill="none" xmlns="http://www.w3.org/2000/svg">
<path d="M13.1111 3.11108H4.66667C4.48986 3.11108 4.32029 3.18132 4.19526 3.30635C4.07024 3.43137 4 3.60094 4 3.77775V14.4444C4 14.6212 4.07024 14.7908 4.19526 14.9158C4.32029 15.0408 4.48986 15.1111 4.66667 15.1111H13.1111C13.2879 15.1111 13.4575 15.0408 13.5825 14.9158C13.7075 14.7908 13.7778 14.6212 13.7778 14.4444V3.77775C13.7778 3.60094 13.7075 3.43137 13.5825 3.30635C13.4575 3.18132 13.2879 3.11108 13.1111 3.11108ZM12.8889 14.2222H4.88889V3.99997H12.8889V14.2222Z" fill="black"/>
<path d="M11.5551 1.55558C11.5551 1.37877 11.4849 1.2092 11.3599 1.08418C11.2348 0.959154 11.0653 0.888916 10.8885 0.888916H2.44401C2.2672 0.888916 2.09763 0.959154 1.97261 1.08418C1.84758 1.2092 1.77734 1.37877 1.77734 1.55558V12.2222C1.77734 12.3991 1.84758 12.5686 1.97261 12.6937C2.09763 12.8187 2.2672 12.8889 2.44401 12.8889H2.66623V1.7778H11.5551V1.55558Z" fill="black"/>
</svg>
