<svg width="18" height="25" viewBox="0 0 18 25" fill="none" xmlns="http://www.w3.org/2000/svg">
<path d="M9 0.817826L9.62837 0.294182C9.55159 0.202101 9.4555 0.128022 9.34691 0.0771862C9.23833 0.0263503 9.1199 0 9 0C8.8801 0 8.76167 0.0263503 8.65309 0.0771862C8.5445 0.128022 8.44842 0.202101 8.37163 0.294182L9 0.817826ZM0.818064 10.6361L0.189691 10.1125C0.0793775 10.2449 0.01366 10.4087 0.00190651 10.5805C-0.00984692 10.7524 0.0329638 10.9237 0.124236 11.0698L0.818064 10.6361ZM9 23.7272L8.30617 24.1609C8.37972 24.2786 8.48199 24.3756 8.60336 24.4429C8.72474 24.5101 8.86123 24.5454 9 24.5454C9.13877 24.5454 9.27526 24.5101 9.39664 24.4429C9.51801 24.3756 9.62028 24.2786 9.69383 24.1609L9 23.7272ZM17.1819 10.6361L17.8758 11.0698C17.967 10.9237 18.0098 10.7524 17.9981 10.5805C17.9863 10.4087 17.9206 10.2449 17.8103 10.1125L17.1819 10.6361ZM9 7.36337L9.30437 6.60409L9 6.47973L8.69563 6.60245L9 7.36174V7.36337ZM8.37163 0.294182L0.189691 10.1125L1.44644 11.1598L9.62837 1.34147L8.37163 0.294182ZM0.124236 11.0698L8.30617 24.1609L9.69383 23.2936L1.51189 10.2025L0.124236 11.0698ZM9.69383 24.1609L17.8758 11.0698L16.4881 10.2025L8.30617 23.2936L9.69383 24.1609ZM17.8103 10.1125L9.62837 0.294182L8.37163 1.34147L16.5536 11.1598L17.8103 10.1125ZM1.12243 11.3954L9.30437 8.12266L8.69563 6.60409L0.513696 9.87686L1.12243 11.3954ZM8.69563 8.12266L16.8776 11.3954L17.4863 9.87686L9.30437 6.60409L8.69563 8.12266Z" fill="black"/>
</svg>
