<svg width="20" height="26" viewBox="0 0 20 26" fill="none" xmlns="http://www.w3.org/2000/svg">
<path d="M1.21853 2.4378C0.909706 2.43771 0.612429 2.32039 0.386769 2.10956C0.161108 1.89872 0.0238879 1.61009 0.00283839 1.30198C-0.0182111 0.99387 0.0784782 0.689261 0.273369 0.449694C0.468258 0.210127 0.746819 0.053469 1.05276 0.0113757L1.21853 -1.59751e-06L18.2734 -1.06527e-07C18.5822 9.52879e-05 18.8795 0.117413 19.1052 0.328247C19.3308 0.539082 19.4681 0.827713 19.4891 1.13582C19.5102 1.44393 19.4135 1.74854 19.2186 1.98811C19.0237 2.22768 18.7451 2.38433 18.4392 2.42643L18.2734 2.43781L1.21853 2.4378ZM9.7346 25.9984C9.44033 25.998 9.15614 25.8911 8.9345 25.6976C8.71285 25.504 8.56872 25.2368 8.52869 24.9452L8.51732 24.7795L8.51732 8.21377L3.69697 13.0406C3.49079 13.2473 3.21729 13.3731 2.92619 13.3952C2.6351 13.4173 2.34575 13.3341 2.11077 13.1609L1.97263 13.0439C1.76577 12.8374 1.63999 12.5635 1.61822 12.272C1.59644 11.9806 1.68011 11.691 1.85399 11.4561L1.971 11.3195L8.86674 4.41243L8.9805 4.31004L9.13002 4.21415L9.18853 4.18002L9.33642 4.11826L9.53145 4.06951L9.64521 4.0565L9.74272 4.05325C9.82521 4.05339 9.90745 4.06211 9.98813 4.07926L10.1181 4.11664C10.2726 4.16635 10.4153 4.24709 10.5374 4.35392L17.5096 11.3179C17.7282 11.5351 17.8565 11.8271 17.8685 12.1351C17.8805 12.4431 17.7754 12.7442 17.5744 12.9778C17.3733 13.2114 17.0912 13.3601 16.7849 13.3941C16.4786 13.4281 16.1707 13.3448 15.9234 13.1609L15.7869 13.0423L10.9551 8.22028L10.9551 24.7811C10.9551 25.1044 10.8267 25.4144 10.5981 25.643C10.3695 25.8716 10.0595 26 9.73622 26L9.7346 25.9984Z" fill="white"/>
</svg>
