<svg width="28" height="28" viewBox="0 0 28 28" fill="none" xmlns="http://www.w3.org/2000/svg">
<path d="M23.1847 16.1875H4.15618C4.03587 16.1875 3.93743 16.2859 3.93743 16.4062V18.0469C3.93743 18.1672 4.03587 18.2656 4.15618 18.2656H20.7046L16.7589 23.2695C16.6468 23.4117 16.748 23.625 16.9312 23.625H18.9136C19.0476 23.625 19.1734 23.5648 19.2581 23.4582L23.8738 17.6039C24.3249 17.0297 23.9175 16.1875 23.1847 16.1875ZM23.8437 9.73438H7.29524L11.2409 4.73047C11.3531 4.58828 11.2519 4.375 11.0687 4.375H9.08626C8.95228 4.375 8.8265 4.43516 8.74173 4.5418L4.1261 10.3961C3.67493 10.9703 4.08235 11.8125 4.81243 11.8125H23.8437C23.964 11.8125 24.0624 11.7141 24.0624 11.5938V9.95312C24.0624 9.83281 23.964 9.73438 23.8437 9.73438Z" fill="white"/>
</svg>
