<svg width="20" height="26" viewBox="0 0 20 26" fill="none" xmlns="http://www.w3.org/2000/svg">
<path d="M18.2734 23.5622C18.5822 23.5623 18.8795 23.6796 19.1052 23.8904C19.3308 24.1013 19.4681 24.3899 19.4891 24.698C19.5102 25.0061 19.4135 25.3107 19.2186 25.5503C19.0237 25.7899 18.7451 25.9465 18.4392 25.9886L18.2734 26H1.21853C0.909704 25.9999 0.612426 25.8826 0.386765 25.6718C0.161104 25.4609 0.0238862 25.1723 0.0028366 24.8642C-0.018213 24.5561 0.0784758 24.2515 0.273366 24.0119C0.468255 23.7723 0.746815 23.6157 1.05276 23.5736L1.21853 23.5622H18.2734ZM9.75735 0.00162528C10.0516 0.00203008 10.3358 0.108877 10.5574 0.302443C10.7791 0.496008 10.9232 0.763223 10.9632 1.05476L10.9746 1.22053V17.7862L15.795 12.9594C16.0012 12.7527 16.2747 12.6269 16.5658 12.6048C16.8568 12.5827 17.1462 12.6659 17.3812 12.8391L17.5193 12.9561C17.7262 13.1626 17.852 13.4365 17.8737 13.728C17.8955 14.0194 17.8118 14.309 17.638 14.5439L17.5209 14.6805L10.6252 21.5876L10.5114 21.69L10.3619 21.7858L10.3034 21.82L10.1555 21.8817L9.9605 21.9305L9.84673 21.9435L9.74922 21.9467C9.66674 21.9466 9.58449 21.9379 9.50382 21.9207L9.3738 21.8834C9.21933 21.8337 9.07665 21.7529 8.9545 21.6461L1.98238 14.6821C1.76372 14.4649 1.63548 14.1729 1.62346 13.8649C1.61143 13.5569 1.71653 13.2558 1.91758 13.0222C2.11864 12.7886 2.40072 12.6399 2.70705 12.6059C3.01339 12.5719 3.32121 12.6552 3.56857 12.8391L3.70509 12.9577L8.53682 17.7797V1.2189C8.53682 0.89563 8.66524 0.585597 8.89383 0.357008C9.12242 0.12842 9.43245 0 9.75572 0L9.75735 0.00162528Z" fill="white"/>
</svg>
