<svg width="16" height="16" viewBox="0 0 16 16" fill="none" xmlns="http://www.w3.org/2000/svg">
<path d="M13.8555 2.14501C13.788 2.07784 13.7028 2.03134 13.6098 2.01097C13.5168 1.9906 13.4199 1.9972 13.3305 2.03001L2.33049 6.03001C2.23562 6.06599 2.15395 6.12998 2.09631 6.21348C2.03868 6.29699 2.00781 6.39605 2.00781 6.49751C2.00781 6.59897 2.03868 6.69803 2.09631 6.78153C2.15395 6.86503 2.23562 6.92902 2.33049 6.96501L7.13049 8.88501L9.05049 13.685C9.08656 13.7757 9.14839 13.8539 9.22836 13.9098C9.30832 13.9658 9.40292 13.9972 9.50049 14C9.60153 13.9979 9.69957 13.9653 9.78169 13.9064C9.86381 13.8475 9.92615 13.7651 9.96049 13.67L13.9605 2.67001C13.9946 2.58155 14.0028 2.48522 13.9842 2.39227C13.9656 2.29932 13.921 2.21356 13.8555 2.14501ZM9.50049 12.1L8.10549 8.60001L10.5005 6.20501L9.79549 5.50001L7.38049 7.91501L3.90049 6.50001L12.6655 3.33501L9.50049 12.1Z" fill="black"/>
</svg>
