<svg width="39" height="39" viewBox="0 0 39 39" fill="none" xmlns="http://www.w3.org/2000/svg">
<path d="M19.6077 11.9167C15.3827 11.9167 12.0244 15.275 12.0244 19.5C12.0244 23.725 15.3827 27.0833 19.6077 27.0833C23.8327 27.0833 27.1911 23.725 27.1911 19.5C27.1911 15.275 23.8327 11.9167 19.6077 11.9167ZM19.6077 24.9167C16.5744 24.9167 14.1911 22.5333 14.1911 19.5C14.1911 16.4667 16.5744 14.0833 19.6077 14.0833C22.6411 14.0833 25.0244 16.4667 25.0244 19.5C25.0244 22.5333 22.6411 24.9167 19.6077 24.9167Z" fill="black"/>
<path d="M35.5337 15.925L32.5003 14.95L31.8503 13.325L33.367 10.5083C33.692 9.85834 33.5837 8.99167 33.042 8.45001L30.442 5.85001C29.9003 5.30834 29.0337 5.20001 28.3837 5.52501L25.567 7.04167L23.942 6.39167L22.967 3.35834C22.7503 2.70834 22.1003 2.16667 21.342 2.16667H17.6587C16.9003 2.16667 16.2503 2.70834 16.142 3.46667L15.167 6.50001C14.517 6.60834 13.9753 6.82501 13.4337 7.15001L10.617 5.63334C9.96699 5.30834 9.10033 5.41667 8.55866 5.95834L5.95866 8.55834C5.41699 9.10001 5.30866 9.96667 5.63366 10.6167L7.04199 13.325C6.82533 13.8667 6.60866 14.5167 6.39199 15.0583L3.35866 16.0333C2.70866 16.25 2.16699 16.9 2.16699 17.6583V21.3417C2.16699 22.1 2.70866 22.75 3.46699 22.9667L6.50033 23.9417L7.15032 25.5667L5.63366 28.3833C5.30866 29.0333 5.41699 29.9 5.95866 30.4417L8.55866 33.0417C9.10033 33.5833 9.96699 33.6917 10.617 33.3667L13.4337 31.85L15.0587 32.5L16.0337 35.6417C16.2503 36.2917 16.9003 36.8333 17.6587 36.8333H21.342C22.1003 36.8333 22.7503 36.2917 22.967 35.6417L23.942 32.5L25.567 31.85L28.3837 33.3667C29.0337 33.6917 29.9003 33.5833 30.442 33.0417L33.042 30.4417C33.5837 29.9 33.692 29.0333 33.367 28.3833L31.8503 25.5667L32.5003 23.9417L35.642 22.9667C36.292 22.75 36.8337 22.1 36.8337 21.3417V17.6583C36.8337 16.9 36.292 16.1417 35.5337 15.925ZM34.667 21.0167L30.767 22.2083L30.6587 22.75L29.6837 25.025L29.3587 25.5667L31.3087 29.1417L29.142 31.3083L25.567 29.3583L25.0253 29.6833C24.267 30.1167 23.5087 30.4417 22.7503 30.6583L22.2087 30.7667L21.017 34.6667H17.9837L16.792 30.7667L16.2503 30.6583L13.9753 29.6833L13.4337 29.3583L9.85866 31.3083L7.69199 29.1417L9.64199 25.5667L9.31699 25.025C8.88366 24.2667 8.55866 23.5083 8.34199 22.75L8.23366 22.2083L4.33366 21.0167V17.9833L8.01699 16.9L8.23366 16.3583C8.45033 15.4917 8.77532 14.7333 9.20866 13.975L9.53366 13.4333L7.69199 9.85834L9.85866 7.69167L13.3253 9.64167L13.867 9.31667C14.6253 8.88334 15.3837 8.55834 16.2503 8.34167L16.792 8.12501L17.9837 4.33334H21.017L22.2087 8.12501L22.7503 8.34167C23.5087 8.55834 24.267 8.88334 25.0253 9.31667L25.567 9.64167L29.142 7.69167L31.3087 9.85834L29.3587 13.4333L29.6837 13.975C30.117 14.7333 30.442 15.4917 30.6587 16.25L30.767 16.7917L34.667 17.9833V21.0167Z" fill="black"/>
</svg>
